<svg width="24" height="24" viewBox="0 0 24 24" xmlns="http://www.w3.org/2000/svg">
<path d="M13.325 13C12.7917 12.25 12.0875 11.7292 11.2125 11.4375C10.3375 11.1458 9.43333 11 8.5 11C7.56667 11 6.6625 11.1458 5.7875 11.4375C4.9125 11.7292 4.20833 12.25 3.675 13H13.325ZM1 15C1 13.1833 1.75833 11.7292 3.275 10.6375C4.79167 9.54583 6.53333 9 8.5 9C10.4667 9 12.2083 9.54583 13.725 10.6375C15.2417 11.7292 16 13.1833 16 15H1ZM1 19V17H16V19H1ZM18 23V21H19.4L20.8 7H11.25L11 5H16V1H18V5H23L21.35 21.55C21.3 21.9667 21.1167 22.3125 20.8 22.5875C20.4833 22.8625 20.1167 23 19.7 23H18ZM2 23C1.71667 23 1.47917 22.9042 1.2875 22.7125C1.09583 22.5208 1 22.2833 1 22V21H16V22C16 22.2833 15.9042 22.5208 15.7125 22.7125C15.5208 22.9042 15.2833 23 15 23H2Z"/>
</svg>
