<svg width="current" height="current" viewBox="0 0 24 24" fill="current" xmlns="http://www.w3.org/2000/svg">
<g clip-path="url(#clip0_29_1454)">
<path d="M0.857143 0C0.633929 0 0.435268 0.0848214 0.261161 0.254464C0.0870536 0.424107 0 0.625 0 0.857143V23.1429C0 23.375 0.0870536 23.5759 0.261161 23.7455C0.435268 23.9152 0.633929 24 0.857143 24H23.1429C23.3661 24 23.5647 23.9152 23.7388 23.7455C23.9129 23.5759 24 23.375 24 23.1429V0.857143C24 0.625 23.9129 0.424107 23.7388 0.254464C23.5647 0.0848214 23.3661 0 23.1429 0H0.857143ZM5.37054 6H9.99107L14.0089 12V6H18.6295V18H14.0089L9.99107 12V18H5.37054V6Z" fill="#02C75A"/>
</g>
<defs>
<clipPath id="clip0_29_1454">
<rect width="24" height="24" fill="white"/>
</clipPath>
</defs>
</svg>
