<svg width="current" height="current" viewBox="0 0 24 24"  xmlns="http://www.w3.org/2000/svg">
<path d="M20.25 7.61585L4.25 7.61585C4.25 7.07927 4.44583 6.61992 4.8375 6.23781C5.22917 5.85569 5.7 5.66463 6.25 5.66463L18.25 5.66463C18.8 5.66463 19.2708 5.85569 19.6625 6.23781C20.0542 6.61992 20.25 7.07927 20.25 7.61585ZM22.25 20.2988C22.25 20.8354 22.0542 21.2947 21.6625 21.6768C21.2708 22.0589 20.8 22.25 20.25 22.25L4.25 22.25C3.7 22.25 3.22917 22.0589 2.8375 21.6768C2.44583 21.2947 2.25 20.8354 2.25 20.2988L2.25 11.5183C2.25 10.9817 2.44583 10.5224 2.8375 10.1402C3.22917 9.75813 3.7 9.56707 4.25 9.56707L20.25 9.56707C20.8 9.56707 21.2708 9.75813 21.6625 10.1402C22.0542 10.5224 22.25 10.9817 22.25 11.5183L22.25 20.2988ZM18.25 3.71341L6.25 3.71341C6.25 3.30691 6.39583 2.96138 6.6875 2.67683C6.97917 2.39228 7.33333 2.25 7.75 2.25L16.75 2.25C17.1667 2.25 17.5208 2.39228 17.8125 2.67683C18.1042 2.96138 18.25 3.30691 18.25 3.71341ZM20.25 20.2988L20.25 11.5183L4.25 11.5183L4.25 20.2988L20.25 20.2988Z" />
</svg>
